<svg width="100%" height="100%" viewBox="0 0 827 683" version="1.1">
    <g transform="matrix(1,0,0,1,-506.38,-1071.83)">
        <path d="M1332.67,1242.36C1332.67,1148.25 1256.26,1071.84 1162.14,1071.84L676.906,1071.84C582.79,1071.84 506.38,1148.25 506.38,1242.36L506.38,1583.41C506.38,1677.53 582.79,1753.94 676.906,1753.94L1162.14,1753.94C1256.26,1753.94 1332.67,1677.53 1332.67,1583.41L1332.67,1242.36ZM778.816,1532.66L778.816,1296.82L850.606,1296.82L850.606,1346.35C863.049,1323.38 876.211,1308.78 890.09,1302.56C903.969,1296.34 917.131,1293.23 929.574,1293.23C942.018,1293.23 952.906,1294.9 962.238,1298.25C971.571,1301.6 979.587,1306.15 986.288,1311.89C992.988,1317.63 998.612,1324.34 1003.16,1331.99C1007.71,1339.65 1011.41,1348.03 1014.29,1357.12C1020.99,1342.76 1027.93,1331.39 1035.11,1323.02C1042.28,1314.64 1049.46,1308.18 1056.64,1303.64C1063.82,1299.09 1070.88,1296.22 1077.82,1295.02C1084.76,1293.83 1091.1,1293.23 1096.84,1293.23C1118.38,1293.23 1135.73,1297.3 1148.89,1305.43C1162.05,1313.57 1171.98,1323.98 1178.68,1336.66C1185.38,1349.34 1189.81,1363.22 1191.96,1378.3C1194.12,1393.37 1195.19,1407.85 1195.19,1421.73C1195.19,1430.34 1194.96,1439.8 1194.48,1450.09C1194,1460.38 1193.52,1470.9 1193.04,1481.67C1192.56,1492.44 1192.08,1503.21 1191.61,1513.98C1191.13,1524.75 1190.89,1534.68 1190.89,1543.77C1190.89,1547.6 1191.13,1552.99 1191.61,1559.92C1192.08,1566.86 1193.28,1573.68 1195.19,1580.38C1197.11,1587.09 1200.22,1592.95 1204.53,1597.97C1208.84,1603 1215.06,1605.51 1223.19,1605.51C1236.12,1605.51 1246.16,1603.36 1253.34,1599.05L1253.34,1604.08C1253.34,1616.04 1251.67,1625.73 1248.32,1633.15C1244.97,1640.57 1240.78,1646.19 1235.76,1650.02C1230.73,1653.85 1225.23,1656.48 1219.24,1657.92C1213.26,1659.35 1207.88,1660.07 1203.09,1660.07C1187.78,1660.07 1174.86,1657.08 1164.33,1651.1C1153.8,1645.11 1145.18,1637.1 1138.48,1627.05C1131.78,1617 1126.88,1605.27 1123.76,1591.87C1120.65,1578.47 1119.1,1564.59 1119.1,1550.23C1119.1,1545.92 1119.22,1537.91 1119.46,1526.18C1119.7,1514.46 1119.94,1501.89 1120.17,1488.49C1120.41,1475.09 1120.65,1462.41 1120.89,1450.44C1121.13,1438.48 1121.25,1430.11 1121.25,1425.32C1121.25,1410 1120.06,1397.32 1117.66,1387.27C1115.27,1377.22 1111.92,1369.32 1107.61,1363.58C1103.3,1357.84 1098.4,1353.77 1092.89,1351.38C1087.39,1348.98 1081.53,1347.79 1075.31,1347.79C1060.47,1347.79 1048.39,1353.77 1039.05,1365.73C1029.72,1377.7 1023.14,1397.8 1019.31,1426.04L1019.31,1655.76L947.522,1655.76L947.522,1415.99C947.522,1407.37 947.163,1399 946.445,1390.86C945.727,1382.72 943.932,1375.43 941.06,1368.96C938.189,1362.5 934.121,1357.36 928.856,1353.53C923.592,1349.7 916.413,1347.79 907.319,1347.79C892.004,1347.79 880.398,1354.13 872.502,1366.81C864.605,1379.49 857.306,1399.24 850.606,1426.04L850.606,1655.76L778.816,1655.76L778.816,1601.99C770.039,1617.84 760.945,1630.02 751.537,1638.53C741.486,1647.63 731.555,1653.49 721.744,1656.12C711.933,1658.75 702.959,1660.07 694.823,1660.07C677.593,1660.07 663.475,1656.84 652.467,1650.38C641.459,1643.92 632.845,1635.66 626.623,1625.61C620.401,1615.56 616.094,1604.43 613.701,1592.23C611.308,1580.03 610.111,1567.94 610.111,1555.98L610.111,1321.94L585.703,1321.94L585.703,1296.82L610.111,1296.82L610.111,1197.75L681.901,1187.7L681.901,1296.82L737.179,1296.82L737.179,1321.94L681.901,1321.94L681.901,1540.9C681.901,1546.64 682.14,1553.22 682.619,1560.64C683.097,1568.06 684.413,1575.12 686.567,1581.82C688.721,1588.52 692.071,1594.14 696.618,1598.69C701.164,1603.24 707.506,1605.51 715.642,1605.51C728.564,1605.51 740.888,1599.05 752.613,1586.13C763.523,1574.11 772.257,1556.28 778.816,1532.66Z"/>
    </g>
</svg>
